<svg xmlns="http://www.w3.org/2000/svg" xmlns:xlink="http://www.w3.org/1999/xlink" viewBox="0 0 2048.85 597.59"><defs><style>.cls-1,.cls-10,.cls-11,.cls-12,.cls-13,.cls-17,.cls-19,.cls-9{fill:none;}.cls-16,.cls-2{fill:#fff;}.cls-3{font-size:220px;fill:#edc86d;font-family:LucidaHandwriting-Italic, Lucida Handwriting;font-style:italic;}.cls-4{clip-path:url(#clip-path);}.cls-5{fill:#fef4ed;}.cls-6{fill:#f1e79c;}.cls-7{fill:#e1bdad;}.cls-8{fill:#dcb662;}.cls-9{stroke:#aa7e6b;}.cls-10,.cls-11,.cls-12,.cls-13,.cls-14,.cls-16,.cls-17,.cls-19,.cls-9{stroke-miterlimit:10;}.cls-10,.cls-11,.cls-13,.cls-17,.cls-19,.cls-9{stroke-width:8px;}.cls-10{stroke:#c08c40;}.cls-10,.cls-13,.cls-17,.cls-19{stroke-linecap:round;}.cls-11{stroke:#7e6f75;}.cls-12{stroke:#6b4328;stroke-width:10px;}.cls-13{stroke:#a17c3f;}.cls-14{fill:#dca2a0;stroke:#a55d50;stroke-width:5px;}.cls-15{fill:#a05a4f;}.cls-16{stroke:#fff;stroke-width:3px;}.cls-17{stroke:#86632e;}.cls-18{fill:#2f4a82;}.cls-19{stroke:#6192cb;}.cls-20{fill:#2d4a83;}.cls-21{fill:#000015;}</style><clipPath id="clip-path" transform="translate(-70.02 -35.17)"><path class="cls-1" d="M267.06,607.8c-7.23-19.11,9-40.92,23.49-51.06,17.34-12.12,46-17.18,59.75-3.06,16.41,16.88,8.2,57.89-18.39,72C309.32,637.66,275.2,629.3,267.06,607.8Z"/></clipPath></defs><g id="图层_4" data-name="图层 4"><rect class="cls-2" width="595.28" height="595.28"/><text class="cls-3" transform="translate(697.2 417.11) scale(1.3 1)">ALDESIA</text></g><g id="图层_1" data-name="图层 1"><g class="cls-4"><rect class="cls-2" x="4.3" y="2.31" width="595.28" height="595.28"/></g><path class="cls-5" d="M231.06,403.67c-1.09,15.74-4.11,40.14,10.73,55.41,11.58,11.92,25.53,9.48,38.55,26.29,7.88,10.18,6.39,15,14,26.81,9.63,14.83,23.1,23.73,34.47,29.24a140.24,140.24,0,0,1,36.77-19c21.54-7.32,39.31-7,45.19-7.41,6.56-.46,95.6-7.22,134-37.79,53.9-42.85,43.14-160.15,4.6-237.44-13.86-27.8-57.93-116.16-144-125.62C312.32,103.91,223.32,191.91,214,265.8,208.11,311.93,236.19,329.71,231.06,403.67Z" transform="translate(-70.02 -35.17)"/><path class="cls-6" d="M261.11,505.34c-2.34-.7-5.73-1.74-9.78-3.13A245.34,245.34,0,0,1,178,461.42C118.67,412.87,101.43,346.65,97.36,329a230.5,230.5,0,0,1-5.27-34.89,235.36,235.36,0,0,0,32.51-9.45c11.93-4.43,19.74-7.32,28.78-13.65,7.35-5.14,12.17-10.51,21.51-21,13.28-14.95,12.08-16.08,25.9-32.15,10-11.6,12.81-14.19,24.88-28.08,6.09-7,7.74-10.07,12.29-15.3,9.12-10.5,21.84-25,42.21-39.49C303,118.66,323.29,111,339.06,105.34c26.52-9.6,45.93-16.62,71.32-13.62,11.79,1.39,21.51,4.54,34.32,8.7,25,8.11,35.66,15.63,38.7,17.85a100.13,100.13,0,0,1,16.34,15,130.53,130.53,0,0,1,21.11,8.17c8,3.93,39.6,20.46,57.19,54.3,4.56,8.76,2.11,7,12.77,48,12.62,48.52,17.59,56.84,18.89,79.15,1.27,21.76-6.16,25.2-3.77,47,1,9.35,3,26,13.3,42.9,4.7,7.71,7.35,9.3,12.94,18.72a124.14,124.14,0,0,1,12.94,30.64,130.47,130.47,0,0,0-31.32,6.13c-5.43,1.78-20.87,7.23-38.81,20.42-19.13,14.07-18.91,20.62-33.45,32.86-21.39,18-44.63,23-64.76,27.4a192.38,192.38,0,0,1-71.08,1.79c-3.8-.63-6.94-1.27-9.14-1.74a81.52,81.52,0,0,0-3.1-16c-1.55-5.08-3.36-9.12-5.36-17.1-.63-2.5-1.08-4.58-1.37-6,7.54-1.74,18.57-4.45,31.83-8.34,17.77-5.21,22.51-7.55,24.68-8.68,6.83-3.56,17.22-10.39,27.19-23.88.89-5.4,2.69-20.84-6.25-35.87a50,50,0,0,0-11.23-13c7.87.39,20.83-.19,32.93-7.66,31-19.13,29.08-66.6,28.51-80.42-1.22-30-12.91-53.43-22.47-68.09a34.64,34.64,0,0,1-16.85-5.1c-6.66-4.22-9.8-9.78-14.21-18.22-12.93-24.78-19.4-37.17-22.47-52a136.23,136.23,0,0,1-2.68-21.32,120.82,120.82,0,0,1-19.15,21.19,126.33,126.33,0,0,1-34.21,21.06c-20.95,9.22-39.18,11.58-55.28,13.66-7.85,1-14.46,1.52-19.15,1.79-6.85,5.56-16.6,13.84-27.7,24.64-12.23,11.9-18.42,18-21.95,25.66-2.69,5.8-8,20.62-.22,44.25l-16.68,3.58c-1.29,10.56,1,17.32,3.24,21.44,2.33,4.37,5.24,7.06,25.36,24.34,7.24,6.22,10.94,9.38,10.38,13.11s-4.53,4.14-10.08,8.55c-8.72,6.92-8,12.86-17,25a87.44,87.44,0,0,1-13.62,14.59,157.75,157.75,0,0,0,34,45.79,154.3,154.3,0,0,0,16.85,13.53q-.12,8.94-.25,17.87c-1.63-1.24-11.67-8.62-22.73-5.36A20.89,20.89,0,0,0,261.11,505.34Z" transform="translate(-70.02 -35.17)"/><path class="cls-7" d="M297.13,520.64a17.35,17.35,0,0,1-4.79-5.48c-4.65-9.16,2.07-20.7,4-23.83,8.32,8.06,20,16.85,35.55,21.49,30.78,9.21,56.25-4,56.69-2.37C389.33,513.08,313.66,532.74,297.13,520.64Z" transform="translate(-70.02 -35.17)"/><path class="cls-7" d="M357.45,394.1c-1.75-.11-3.31-1.36-5-3.88a64.51,64.51,0,0,1-5.76-12.46c9.54-6.26,18.57-8.25,21.42-5.16C372.43,377.25,363.65,394.45,357.45,394.1Z" transform="translate(-70.02 -35.17)"/><path class="cls-7" d="M250,338.92a22,22,0,0,1-5-3.87c-2-2.35-5.36-7.52-3.68-11,2-4.14,10.72-5.09,16-1.7,8.13,5.21,7.13,20,3.41,21.78C259.07,344.94,256.06,342.92,250,338.92Z" transform="translate(-70.02 -35.17)"/><path class="cls-7" d="M470.52,456.37c0,8.71-2.91,22.24-7.88,22.75-4.34.45-11.33-8.9-23-51.57,3.15-1.29,10.23-3.61,17.14-.75C470.63,432.54,470.53,453.58,470.52,456.37Z" transform="translate(-70.02 -35.17)"/><path class="cls-2" d="M280.68,495.8A76.83,76.83,0,0,0,288,514c3.28,5.83,15,26.67,31.83,28.08,2.92.25,8.53-2.05,19.74-6.64,18.72-7.65,27.57-13.7,43.24-14.81,1.88-.13,3.42-.16,4.42-.17A60.68,60.68,0,0,1,392,583c-11.66,25.41-34.81,37.18-43.4,41-13.68-27.86-16.06-42.38-15.32-50.55.2-2.26,1.21-10.45-3.58-15a12.47,12.47,0,0,0-7.32-3.06,156,156,0,0,1-21.1,19.74,158.63,158.63,0,0,1-50.9,26.22,220.25,220.25,0,0,1-.25-87.32A140.08,140.08,0,0,1,268,502.1C272.43,499.62,276.69,497.54,280.68,495.8Z" transform="translate(-70.02 -35.17)"/><path class="cls-8" d="M205.79,386.19c-36.86-16.66-40.48-63.86-85.53-82a78.54,78.54,0,0,0-30.71-5.43,200.35,200.35,0,0,0,7.81,37.68c10.73,34.57,28.11,57,48.34,82.73,15.84,20.11,31.36,39.45,57.87,58.55a243,243,0,0,0,46.75,26.36L262,505l25.36-4.76c5-3.09,10.8-7.53,10.21-11.92-.69-5.12-9.37-6.95-16.68-10.21-23.61-10.52-41.28-39.86-36-57,1.23-3.93,2.53-3.58,15.13-18.44,7.69-9.06,13.61-16.74,17.41-21.83C241.75,395.92,219.56,392.41,205.79,386.19Z" transform="translate(-70.02 -35.17)"/><path class="cls-8" d="M419.06,497.85c44.67-19.45,54.38-31.48,53.28-39.15-.6-4.16-4.68-9.16-7.66-22a92.33,92.33,0,0,1-2-12.77c8.95,7.77,24.05,18.6,44.42,22,44.15,7.28,72.43-27.23,107.24-14.81,8.76,3.13,21.39,10.46,33.09,30.5a131.84,131.84,0,0,0-109,65.33A381.44,381.44,0,0,1,392,552.27q.38-6.49.9-13.15c.11-1.39.22-2.78.34-4.17l-7.49-28.34a67.47,67.47,0,0,0,20.93-3.32A66.66,66.66,0,0,0,419.06,497.85Z" transform="translate(-70.02 -35.17)"/><path class="cls-9" d="M242.53,431.65a220.65,220.65,0,0,0,21,28.75,217,217,0,0,0,37.28,34.22c11.64,8.46,18,13,28.08,15.83,5,1.41,12.58,2.87,34.47.51,22.19-2.39,39.16-4.33,60.77-13a180.29,180.29,0,0,0,38.55-21.37" transform="translate(-70.02 -35.17)"/><path class="cls-10" d="M234.89,425a22.93,22.93,0,0,0,5-1.27c18.94-7.15,23.89-37.73,34.69-37.41.64,0,2.46.18,3.27-.89,1.55-2-1.51-7.07-4.25-10.72-8.8-11.69-16.11-14.77-22.22-23.15a49.75,49.75,0,0,1-4.08-6.81,61.65,61.65,0,0,1-4.65-11.93" transform="translate(-70.02 -35.17)"/><path class="cls-10" d="M230.26,292.34a61.61,61.61,0,0,0,8.38,16.23c6.13,8.46,16.64,18.33,20.17,16.13,2.8-1.75-.62-9.29-2.38-20.3-4.94-30.73,8.07-56.47,10.8-61.87a101.84,101.84,0,0,1,23.2-30" transform="translate(-70.02 -35.17)"/><path class="cls-10" d="M356.68,202.87a144.45,144.45,0,0,0-61.4,29.74,139,139,0,0,0-20.6,21.29" transform="translate(-70.02 -35.17)"/><path class="cls-10" d="M244.56,504.39a280.3,280.3,0,0,1-68.39-47c-18.62-17.41-63-63.81-79.66-135.57a253.94,253.94,0,0,1-4.6-26.05c3.64-1.63,9.12-4.07,15.83-6.89,23.31-9.8,39.48-15.5,43.66-17.11,27.28-10.45,31.44-36.07,76.86-88.85,17.91-20.81,31.25-36,53.61-51.57a221,221,0,0,1,58.73-29.11c23.92-7.59,71.9-22.8,115.4,0a105.28,105.28,0,0,1,26.55,19.92" transform="translate(-70.02 -35.17)"/><path class="cls-10" d="M342.81,222.78c3.63-1.23,45.19-15.49,69.45-33.7a102.37,102.37,0,0,0,21.44-20.77,98.3,98.3,0,0,0,8.85-13.95" transform="translate(-70.02 -35.17)"/><path class="cls-10" d="M437.88,186.16a147.41,147.41,0,0,0,45.53,76.43" transform="translate(-70.02 -35.17)"/><path class="cls-10" d="M469.79,211.21c4.6,8.36,11.28,20.89,18.72,36.42,16.83,35.12,25.24,52.67,27.92,73.53,2.12,16.58,5.44,42.48-10.22,66.39-16.06,24.52-42.31,32-50.72,34A157.82,157.82,0,0,1,472.3,471.2" transform="translate(-70.02 -35.17)"/><path class="cls-10" d="M482,70.1a29.48,29.48,0,0,1,14.81,12.77c5.44,9.87,4.27,22.62-2.84,32.9" transform="translate(-70.02 -35.17)"/><path class="cls-10" d="M496.85,130.36a94.71,94.71,0,0,1,20.43,6.12c66,28.37,93.09,150.29,90.89,211.92-.55,15.44-3.59,44.37,13,64.08,3.87,4.59,10.22,11,16.85,22.47a77.66,77.66,0,0,1,9.7,29.11,134.19,134.19,0,0,0-21.7,3.32c-41.07,9.8-66.09,36.73-76.4,46.23-21,19.42-60.18,39.49-139.85,38.08" transform="translate(-70.02 -35.17)"/><path class="cls-9" d="M291.06,511.89q.94-11.65,1.87-23.32" transform="translate(-70.02 -35.17)"/><path class="cls-9" d="M378.38,524.23l10.22-13.78" transform="translate(-70.02 -35.17)"/><path class="cls-11" d="M326.81,544.23c-14.24-8.37-29.85-20.77-41.87-39.14-1.34-2-2.59-4.1-3.75-6.13" transform="translate(-70.02 -35.17)"/><path class="cls-11" d="M333.28,541.51a209.13,209.13,0,0,1,58.55-21.11" transform="translate(-70.02 -35.17)"/><path class="cls-11" d="M270.64,502.36l-19.07,11.92c-.52,2.66-1.32,7.09-2,12.59-3.05,23.51-1.33,42.84,0,56.85.38,4,1,9.86,2,17a163.34,163.34,0,0,0,69.79-48.69" transform="translate(-70.02 -35.17)"/><path class="cls-11" d="M331.91,556.15a273.76,273.76,0,0,0,16.69,65.36c5.6-1.81,25.6-9,38.12-30a68.27,68.27,0,0,0,9.54-34.38Q393,544.06,389.79,531" transform="translate(-70.02 -35.17)"/><path class="cls-12" d="M368.68,379,361,389.25" transform="translate(-70.02 -35.17)"/><path class="cls-13" d="M289.7,255.46c7.48-6.3,20.92-15.61,39.15-18.38,7-1.06,15.55-2.25,24.85,2a36.49,36.49,0,0,1,14,11.58" transform="translate(-70.02 -35.17)"/><path class="cls-13" d="M440.85,274.53c6-3.22,15.78-7,26.55-4.77,19.56,4.1,35.32,26.73,35.41,55.83" transform="translate(-70.02 -35.17)"/><path class="cls-14" d="M319.27,411.93c8.7-13,38.78-4.32,43.08-3.08,7.76,2.24,32.95,9.5,34,22.78,1,13.56-23.23,31.61-45.69,27.78-15.66-2.68-27.95-15.58-31.8-29.12C317.53,425.73,315.3,417.87,319.27,411.93Z" transform="translate(-70.02 -35.17)"/><path class="cls-15" d="M317.48,428.91a102.61,102.61,0,0,1,23.9-23.76,28.61,28.61,0,0,0-17,3.24,15,15,0,0,0-6.3,5.78c-2.48,4.48-1.67,9.58-1.37,11.45A21.59,21.59,0,0,0,317.48,428.91Z" transform="translate(-70.02 -35.17)"/><path class="cls-8" d="M206.3,552.14" transform="translate(-70.02 -35.17)"/><path class="cls-6" d="M250.55,504.82" transform="translate(-70.02 -35.17)"/><path class="cls-16" d="M279.06,326c-.08-1.58,0-3.1,0-3.1h0a32.72,32.72,0,0,1,2.81-11.84,33.63,33.63,0,0,1,10-12.51A41.55,41.55,0,0,1,311.49,290c5.69-.88,14.49-2.26,22.34,2.81,7.65,4.93,10.07,13.18,10.85,15.83,5.84,19.88-6.64,48.12-25.87,52.08-9.46,1.95-19.05-2.29-20.94-3.16-3-1.4-8.59-4-12.83-9.89C285,347.7,279.83,340.44,279.06,326Z" transform="translate(-70.02 -35.17)"/><path class="cls-17" d="M278.3,327.46a31.76,31.76,0,0,1,.51-13.78c4.35-16.17,22.06-27,38.3-27.07,3.69,0,14.59,0,23,8.17A29.29,29.29,0,0,1,348,309.34" transform="translate(-70.02 -35.17)"/><path class="cls-18" d="M304.44,352.44c-5.17-3.52-7.26-8.39-8.43-11.13-4.53-10.6-1.68-20.61-.9-23.19.92-3.05,5.26-17.46,18.36-21.67,1.71-.55,9.49-3.06,16.56.9,9,5,10.11,16.81,10.54,21.38,1.22,13.12-3.79,32.54-17.46,36.73A22.59,22.59,0,0,1,304.44,352.44Z" transform="translate(-70.02 -35.17)"/><circle class="cls-2" cx="254.99" cy="295.33" r="4.77"/><path class="cls-17" d="M267,306.74a11.84,11.84,0,0,0,5.75,2.44,12,12,0,0,0,7.86-1.74" transform="translate(-70.02 -35.17)"/><path class="cls-19" d="M303.26,330.27a16.15,16.15,0,0,0,3.51,10c.86,1.07,4.19,5.2,9.83,5.62,7.34.54,12-5.73,12.25-6.13" transform="translate(-70.02 -35.17)"/><path class="cls-16" d="M419.82,345.22c1.33-3,5.7-12.81,15.92-17.25,5.05-2.19,9.57-2.21,13.05-2.23,3.74,0,13.81-.08,22.74,5.94a36.07,36.07,0,0,1,15,34.43c-2.5,17.13-17.51,29.63-30.38,30.35-7,.39-15.19-2.6-19.23-4.09-5.4-2-8.52-3.12-11.41-5.44C414.94,378.42,413.7,359,419.82,345.22Z" transform="translate(-70.02 -35.17)"/><path class="cls-17" d="M431.23,327c3-1.7,13.86-7.49,27.07-4.34a36.82,36.82,0,0,1,15.06,7.92c11.29,10.23,14.33,29.11,8.74,48.15" transform="translate(-70.02 -35.17)"/><path class="cls-20" d="M424.85,380.39c-3.77-5-4.18-10.29-4.4-13.26-.89-11.49,5-20.05,6.59-22.24,1.86-2.6,10.6-14.84,24.36-14.62,1.8,0,10,.16,15.39,6.18,6.91,7.67,4.17,19.17,3.11,23.63-3.06,12.82-14.06,29.6-28.35,29.16A22.58,22.58,0,0,1,424.85,380.39Z" transform="translate(-70.02 -35.17)"/><circle class="cls-2" cx="381.47" cy="325.94" r="4.77"/><path class="cls-17" d="M486.19,360.72a11.93,11.93,0,0,0,4,4.8,12.16,12.16,0,0,0,7.79,2" transform="translate(-70.02 -35.17)"/><path class="cls-19" d="M434,359.29a11.73,11.73,0,0,0-.89,9.57c.19.5,2.36,6.08,8.1,7a10.41,10.41,0,0,0,10.15-4.61" transform="translate(-70.02 -35.17)"/><path class="cls-21" d="M277.79,495.63" transform="translate(-70.02 -35.17)"/></g></svg>